ply
format ascii 1.0
comment Created by Blender 2.82 (sub 7) - www.blender.org, source file: '16.blend'
element vertex 137
property float x
property float y
property float z
property float nx
property float ny
property float nz
property float s
property float t
element face 70
property list uchar uint vertex_indices
end_header
1.430884 1.430884 0.408971 0.000000 1.000000 0.000000 0.993827 0.173148
0.715442 1.430884 0.716651 0.000000 1.000000 0.000000 0.963924 0.159641
1.430884 1.430884 0.613457 0.000000 1.000000 0.000000 0.993825 0.164171
-1.430884 1.430884 0.000000 0.000000 -0.000000 1.000000 0.490586 0.551644
-10.000000 -10.000000 0.000000 0.000000 -0.000000 1.000000 0.039465 0.922545
-1.430884 -1.430884 0.000000 0.000000 -0.000000 1.000000 0.377646 0.550303
10.000000 -10.000000 0.000000 0.000000 0.000000 1.000000 0.039465 0.044377
1.430884 -1.430884 0.000000 0.000000 0.000000 1.000000 0.377646 0.424648
10.000000 10.000000 0.000000 -0.000000 0.000000 1.000000 0.828768 0.053746
1.430884 1.430884 0.000000 -0.000000 0.000000 1.000000 0.490586 0.425988
-10.000000 10.000000 0.000000 -0.000000 -0.000000 1.000000 0.828768 0.931915
1.430884 0.715442 1.294500 0.651202 0.739710 0.169600 0.993962 0.133094
0.715442 1.430884 0.921136 0.651202 0.739710 0.169600 0.963923 0.150664
0.715442 0.715442 4.041532 0.651202 0.739710 0.169600 0.964041 0.012498
1.430884 -1.430884 0.000000 0.000000 -1.000000 0.000000 0.873926 0.561377
0.715442 -1.430884 2.724172 0.000000 -1.000000 0.000000 0.987777 0.592808
0.000000 -1.430884 2.724172 0.000000 -1.000000 0.000000 0.987777 0.624238
1.430884 0.000000 1.771057 1.000000 0.000000 0.000000 0.934014 0.286841
1.430884 0.715442 1.090014 1.000000 0.000000 0.000000 0.963914 0.256967
1.430884 0.715442 1.294500 1.000000 0.000000 0.000000 0.963914 0.265936
-1.430884 0.000000 1.977445 -1.000000 0.000000 0.000000 0.956139 0.762531
-1.430884 0.715442 1.604082 -1.000000 0.000000 0.000000 0.940636 0.793961
-1.430884 -1.430884 0.000000 -1.000000 0.000000 0.000000 0.873895 0.699671
1.430884 -1.430884 0.000000 1.000000 -0.000000 0.000000 0.874213 0.209161
-0.715442 0.715442 1.526686 0.124972 0.483403 0.866432 0.964032 0.441409
0.000000 1.430884 1.024330 0.124972 0.483403 0.866432 0.933991 0.404316
-0.715442 1.430884 1.127524 0.124972 0.483403 0.866432 0.964001 0.405958
0.000000 -0.715442 2.299212 0.031474 0.486981 0.872845 0.934179 0.511789
-0.715442 0.000000 1.925848 0.031474 0.486981 0.872845 0.964064 0.476860
-0.715442 -0.715442 2.325010 0.031474 0.486981 0.872845 0.964095 0.512311
0.715442 -0.715442 2.273413 0.773826 -0.511823 0.373138 0.904141 0.310633
1.430884 0.000000 1.771057 0.773826 -0.511823 0.373138 0.934014 0.286841
0.715442 0.000000 3.254766 0.773826 -0.511823 0.373138 0.934041 0.353676
1.430884 1.430884 0.204486 0.000000 1.000000 -0.000000 0.993828 0.182125
0.000000 -0.715442 2.299212 0.041729 -0.814533 0.578614 0.935642 0.836864
0.715442 0.000000 3.254766 0.041729 -0.814533 0.578614 0.965543 0.878843
0.000000 0.000000 3.306362 0.041729 -0.814533 0.578614 0.935642 0.881109
0.715442 -1.430884 2.724172 0.000000 0.510687 0.859767 0.904357 0.547464
0.000000 -0.715442 2.299212 0.000000 0.510687 0.859767 0.934179 0.511789
0.000000 -1.430884 2.724172 0.000000 0.510687 0.859767 0.934242 0.547613
1.430884 -1.430884 2.724172 0.000000 0.533064 0.846075 0.874473 0.547314
0.715442 -0.715442 2.273413 0.000000 0.533064 0.846075 0.904263 0.511266
0.715442 -1.430884 2.724172 0.000000 0.533064 0.846075 0.904357 0.547464
-0.715442 -0.715442 2.325010 0.031952 0.462417 0.886087 0.964095 0.512311
-1.430884 0.000000 1.977445 0.031952 0.462417 0.886087 0.994011 0.477756
-1.430884 -0.715442 2.350809 0.031952 0.462417 0.886087 0.994011 0.512834
-0.715442 -1.430884 2.724172 0.000000 0.462653 0.886539 0.964126 0.547762
-1.430884 -0.715442 2.350809 0.000000 0.462653 0.886539 0.994011 0.512834
-1.430884 -1.430884 2.724172 0.000000 0.462653 0.886539 0.994011 0.547912
0.000000 -1.430884 2.724172 0.000000 0.487222 0.873278 0.934242 0.547613
-0.715442 -0.715442 2.325010 0.000000 0.487222 0.873278 0.964095 0.512311
-0.715442 -1.430884 2.724172 0.000000 0.487222 0.873278 0.964126 0.547762
-0.715442 0.715442 1.526686 0.095467 0.460540 0.882490 0.964032 0.441409
-1.430884 1.430884 1.230718 0.095467 0.460540 0.882490 0.994011 0.407600
-1.430884 0.715442 1.604082 0.095467 0.460540 0.882490 0.994011 0.442678
-0.715442 0.000000 1.925848 0.063806 0.461710 0.884733 0.964064 0.476860
-1.430884 0.715442 1.604082 0.063806 0.461710 0.884733 0.994011 0.442678
-1.430884 0.000000 1.977445 0.063806 0.461710 0.884733 0.994011 0.477756
0.000000 0.000000 3.306362 -0.859970 0.248652 0.445673 0.901197 0.872979
-0.715442 0.715442 1.526686 -0.859970 0.248652 0.445673 0.931151 0.954009
-0.715442 0.000000 1.925848 -0.859970 0.248652 0.445673 0.901278 0.936535
1.430884 1.430884 0.613457 1.000000 0.000000 0.000000 0.993815 0.236062
1.430884 1.430884 0.817942 1.000000 0.000000 0.000000 0.993815 0.245031
1.430884 1.430884 0.408971 1.000000 0.000000 0.000000 0.993815 0.227093
0.715442 0.715442 4.041532 0.024360 0.974012 0.225182 0.964041 0.012498
0.000000 1.430884 1.024330 0.024360 0.974012 0.225182 0.934022 0.146134
0.000000 0.715442 4.118927 0.024360 0.974012 0.225182 0.934140 0.009100
0.000000 0.000000 3.306362 0.071305 -0.748627 0.659146 0.935642 0.881109
0.715442 0.715442 4.041532 0.071305 -0.748627 0.659146 0.965543 0.913407
0.000000 0.715442 4.118927 0.071305 -0.748627 0.659146 0.935642 0.916807
0.715442 0.000000 3.254766 0.932562 -0.267091 0.242878 0.934041 0.353676
1.430884 0.715442 1.294500 0.932562 -0.267091 0.242878 0.963914 0.265936
0.715442 0.715442 4.041532 0.932562 -0.267091 0.242878 0.963942 0.388185
0.715442 1.430884 0.921136 0.000000 1.000000 0.000000 0.963923 0.150664
1.430884 1.430884 0.817942 0.000000 1.000000 0.000000 0.993824 0.155194
0.000000 1.430884 1.024330 0.000000 1.000000 0.000000 0.934022 0.146134
1.430884 0.715442 1.294500 0.119189 0.550423 0.826334 0.897852 0.961660
1.430884 1.430884 0.817942 0.119189 0.550423 0.826334 0.899786 0.998174
0.715442 1.430884 0.921136 0.119189 0.550423 0.826334 0.869735 0.998174
-1.430884 -1.430884 2.724172 -0.000000 -1.000000 0.000000 0.987777 0.687099
-1.430884 -1.430884 0.000000 -0.000000 -1.000000 0.000000 0.873926 0.687099
-0.715442 -1.430884 2.724172 -0.000000 -1.000000 0.000000 0.987777 0.655669
1.430884 -1.430884 2.724172 0.000000 -1.000000 0.000000 0.987777 0.561377
-1.430884 1.430884 1.230718 -1.000000 0.000000 0.000000 0.925132 0.825391
-1.430884 1.430884 0.000000 -1.000000 0.000000 0.000000 0.873969 0.825391
-1.430884 -1.430884 2.724172 -1.000000 -0.000000 -0.000000 0.987145 0.699671
-1.430884 -0.715442 2.350809 -1.000000 -0.000000 -0.000000 0.971642 0.731101
1.430884 -1.430884 2.724172 1.000000 0.000000 -0.000000 0.874213 0.328651
1.430884 -0.715442 2.247615 1.000000 0.000000 -0.000000 0.904114 0.307746
1.430884 1.430884 0.000000 1.000000 0.000000 0.000000 0.993815 0.209154
1.430884 1.430884 0.204486 1.000000 0.000000 0.000000 0.993815 0.218123
-0.715442 0.715442 1.526686 -0.632290 0.754822 0.174508 0.904259 0.122901
0.000000 0.715442 4.118927 -0.632290 0.754822 0.174508 0.934140 0.009100
0.000000 1.430884 1.024330 -0.632290 0.754822 0.174508 0.934022 0.146134
0.000000 -0.715442 2.299212 -0.745187 -0.543649 0.386188 0.871229 0.916959
0.000000 0.000000 3.306362 -0.745187 -0.543649 0.386188 0.901197 0.872979
-0.715442 0.000000 1.925848 -0.745187 -0.543649 0.386188 0.901278 0.936535
0.715442 -0.715442 2.273413 0.029998 0.554125 0.831892 0.904263 0.511266
1.430884 -0.715442 2.247615 0.029998 0.554125 0.831892 0.874348 0.510744
1.430884 0.000000 1.771057 0.029998 0.554125 0.831892 0.874222 0.474173
1.430884 1.430884 0.000000 -0.000000 1.000000 0.000000 0.993830 0.191102
-1.430884 1.430884 0.000000 -0.000000 1.000000 0.000000 0.874229 0.191102
-1.430884 1.430884 1.230718 0.000000 1.000000 0.000000 0.874220 0.137073
-0.715442 1.430884 1.127524 0.000000 1.000000 0.000000 0.904121 0.141603
0.000000 -0.715442 2.299212 0.021238 -0.807875 0.588971 0.935642 0.836864
0.715442 -0.715442 2.273413 0.021238 -0.807875 0.588971 0.965543 0.835730
0.715442 0.000000 3.254766 0.021238 -0.807875 0.588971 0.965543 0.878843
0.715442 -1.430884 2.724172 0.030495 0.532816 0.845682 0.904357 0.547464
0.715442 -0.715442 2.273413 0.030495 0.532816 0.845682 0.904263 0.511266
0.000000 -0.715442 2.299212 0.030495 0.532816 0.845682 0.934179 0.511789
1.430884 -1.430884 2.724172 0.029998 0.554125 0.831892 0.874473 0.547314
-0.715442 -0.715442 2.325010 0.062856 0.486259 0.871551 0.964095 0.512311
-0.715442 0.000000 1.925848 0.062856 0.486259 0.871551 0.964064 0.476860
-1.430884 0.000000 1.977445 0.062856 0.486259 0.871551 0.994011 0.477756
-0.715442 -1.430884 2.724172 0.031474 0.486981 0.872845 0.964126 0.547762
-1.430884 -0.715442 2.350809 0.031474 0.486981 0.872845 0.994011 0.512834
0.000000 -1.430884 2.724172 0.030988 0.510442 0.859354 0.934242 0.547613
0.000000 -0.715442 2.299212 0.030988 0.510442 0.859354 0.934179 0.511789
-0.715442 -0.715442 2.325010 0.030988 0.510442 0.859354 0.964095 0.512311
-0.715442 0.715442 1.526686 0.124973 0.483403 0.866432 0.964032 0.441409
-0.715442 1.430884 1.127524 0.124973 0.483403 0.866432 0.964001 0.405958
-1.430884 1.430884 1.230718 0.124973 0.483403 0.866432 0.994011 0.407600
-0.715442 0.000000 1.925848 0.094051 0.485063 0.869407 0.964064 0.476860
-0.715442 0.715442 1.526686 0.094051 0.485063 0.869407 0.964032 0.441409
-1.430884 0.715442 1.604082 0.094051 0.485063 0.869407 0.994011 0.442678
0.000000 0.000000 3.306362 -0.922755 -0.289247 0.254675 0.901197 0.872979
0.000000 0.715442 4.118927 -0.922755 -0.289247 0.254675 0.931151 0.837502
-0.715442 0.715442 1.526686 -0.922755 -0.289247 0.254675 0.931151 0.954009
0.715442 0.715442 4.041532 0.032218 0.974203 0.223364 0.964041 0.012498
0.715442 1.430884 0.921136 0.032218 0.974203 0.223364 0.963923 0.150664
0.000000 1.430884 1.024330 0.032218 0.974203 0.223364 0.934022 0.146134
0.000000 0.000000 3.306362 0.048463 -0.738977 0.671985 0.935642 0.881109
0.715442 0.000000 3.254766 0.048463 -0.738977 0.671985 0.965543 0.878843
0.715442 0.715442 4.041532 0.048463 -0.738977 0.671985 0.965543 0.913407
0.715442 0.000000 3.254766 0.865264 0.277917 0.417229 0.934041 0.353676
1.430884 0.000000 1.771057 0.865264 0.277917 0.417229 0.934014 0.286841
1.430884 0.715442 1.294500 0.865264 0.277917 0.417229 0.963914 0.265936
3 0 1 2
3 3 4 5
3 5 6 7
3 7 8 9
3 9 10 3
3 11 12 13
3 14 15 16
3 17 18 19
3 20 21 22
3 18 17 23
3 24 25 26
3 27 28 29
3 30 31 32
3 1 0 33
3 34 35 36
3 37 38 39
3 40 41 42
3 43 44 45
3 46 47 48
3 49 50 51
3 52 53 54
3 55 56 57
3 58 59 60
3 19 61 62
3 19 18 61
3 18 63 61
3 64 65 66
3 67 68 69
3 70 71 72
3 2 73 74
3 2 1 73
3 1 75 73
3 3 10 4
3 5 4 6
3 7 6 8
3 9 8 10
3 76 77 78
3 79 80 81
3 80 14 16
3 81 80 16
3 14 82 15
3 83 84 21
3 84 22 21
3 22 85 86
3 86 20 22
3 87 23 88
3 23 89 18
3 18 89 90
3 90 63 18
3 88 23 17
3 91 92 93
3 94 95 96
3 97 98 99
3 33 100 1
3 100 101 1
3 101 102 103
3 103 75 101
3 75 1 101
3 104 105 106
3 107 108 109
3 110 98 97
3 111 112 113
3 114 29 115
3 116 117 118
3 119 120 121
3 122 123 124
3 125 126 127
3 128 129 130
3 131 132 133
3 134 135 136
