ply
format ascii 1.0
comment Created by Blender 2.82 (sub 7) - www.blender.org, source file: '16.blend'
element vertex 12
property float x
property float y
property float z
property float s
property float t
element face 9
property list uchar uint vertex_indices
end_header
1.430884 1.430884 0.000000 0.405656 0.607584
-1.430884 1.430884 0.000000 0.375178 0.423434
-1.430884 1.430884 2.724172 0.471733 0.502012
1.430884 1.430884 2.724172 0.478413 0.507333
-1.430884 -1.430884 0.000000 0.552330 0.399051
-10.000000 10.000000 0.000000 0.000098 0.000098
-10.000000 -10.000000 0.000000 0.955174 0.028863
1.430884 -1.430884 0.000000 0.577079 0.577125
10.000000 -10.000000 0.000000 0.955174 0.978128
10.000000 10.000000 0.000000 0.000098 0.999902
-1.430884 -1.430884 2.724172 0.477128 0.495973
1.430884 -1.430884 2.724172 0.482802 0.501936
4 0 1 2 3
4 4 1 5 6
4 7 4 6 8
4 0 7 8 9
4 1 0 9 5
4 10 11 3 2
4 4 7 11 10
4 7 0 3 11
4 1 4 10 2
